<svg width="66" height="66" viewBox="0 0 66 66" fill="none" xmlns="http://www.w3.org/2000/svg">
<path d="M63.4739 13.1663C64.8147 14.507 65.5705 16.3229 65.5751 18.2145C65.5798 20.106 64.8328 21.9182 63.4985 23.2524L23.2524 63.4985C21.9182 64.8328 20.106 65.5798 18.2145 65.5751C16.3229 65.5705 14.507 64.8147 13.1663 63.4739L3.05542 53.363C1.71464 52.0223 0.9588 50.2064 0.954176 48.3148C0.949551 46.4233 1.69652 44.6111 3.03076 43.2769L43.2769 3.03076C44.6111 1.69652 46.4233 0.949548 48.3148 0.954171C50.2064 0.958799 52.0223 1.71464 53.363 3.05542L63.4739 13.1663ZM18.197 58.4431L28.2586 48.3816L18.1477 38.2708L8.08618 48.3323L18.197 58.4431ZM33.2893 43.3508L43.3508 33.2893L33.24 23.1785L23.1785 33.24L33.2893 43.3508ZM48.3816 28.2585L58.4431 18.197L48.3323 8.08618L38.2708 18.1477L48.3816 28.2585Z" fill="white"/>
</svg>
