<svg width="61" height="64" viewBox="0 0 61 64" fill="none" xmlns="http://www.w3.org/2000/svg">
<path d="M37.3781 1.38967e-07C39.0009 -0.000291132 40.591 0.457296 41.9655 1.32018C43.34 2.18306 44.4431 3.41623 45.1482 4.87797C45.8532 6.33971 46.1315 7.97071 45.9512 9.58354C45.7708 11.1964 45.1391 12.7256 44.1286 13.9955L49.8786 23.2041C50.4861 23.068 51.111 23 51.7531 23C53.7067 22.9997 55.6025 23.6626 57.1302 24.8803C58.6579 26.0979 59.727 27.7981 60.1624 29.7026C60.5978 31.607 60.3738 33.6029 59.5271 35.3634C58.6803 37.124 57.2609 38.5449 55.5013 39.3936C53.7417 40.2423 51.7461 40.4685 49.8412 40.0351C47.9362 39.6018 46.2349 38.5346 45.0155 37.0082C43.7962 35.4818 43.1312 33.5867 43.1294 31.6331C43.1276 29.6795 43.789 27.7832 45.0054 26.2545L39.2554 17.0459C38.0209 17.3208 36.741 17.3208 35.5064 17.0459L29.7536 26.2545C30.9266 27.7294 31.6281 29.5952 31.6281 31.625C31.6281 33.6548 30.9266 35.5235 29.7507 36.9955L35.5064 46.2041C36.1102 46.068 36.7341 46 37.3781 46C39.3317 45.9997 41.2275 46.6626 42.7552 47.8803C44.2829 49.0979 45.352 50.7981 45.7874 52.7026C46.2228 54.607 45.9988 56.6029 45.1521 58.3634C44.3053 60.124 42.8859 61.5449 41.1263 62.3936C39.3667 63.2423 37.3711 63.4685 35.4662 63.0351C33.5612 62.6018 31.8599 61.5346 30.6405 60.0082C29.4212 58.4818 28.7562 56.5867 28.7544 54.6331C28.7526 52.6795 29.414 50.7832 30.6304 49.2545L24.8718 40.0459C23.6391 40.3199 22.3613 40.3199 21.1286 40.0459L15.3728 49.2545C16.64 50.8463 17.3037 52.8348 17.2466 54.8686C17.1895 56.9024 16.4152 58.8505 15.0606 60.3687C13.7061 61.8868 11.8584 62.8772 9.84427 63.1648C7.8301 63.4524 5.7791 63.0188 4.05376 61.9404C2.32842 60.8621 1.03984 59.2085 0.415763 57.272C-0.208315 55.3355 -0.127707 53.2407 0.643341 51.3578C1.41439 49.475 2.82623 47.9254 4.62933 46.9828C6.43243 46.0402 8.5107 45.7654 10.4968 46.207L16.2526 36.9955C15.1406 35.6002 14.4887 33.8944 14.3868 32.1131C14.2848 30.3319 14.7377 28.5628 15.6832 27.0498C16.6286 25.5367 18.02 24.354 19.6657 23.6648C21.3113 22.9755 23.1303 22.8136 24.8718 23.2012L30.6276 13.9955C29.617 12.7256 28.9853 11.1964 28.8049 9.58354C28.6246 7.97071 28.9029 6.33971 29.608 4.87797C30.313 3.41623 31.4162 2.18306 32.7906 1.32018C34.1651 0.457296 35.7552 -0.000291132 37.3781 1.38967e-07Z" fill="white"/>
</svg>
