<svg width="53" height="53" viewBox="0 0 53 53" fill="none" xmlns="http://www.w3.org/2000/svg">
<path d="M39.8481 19.7575L48.0682 27.9776C49.4021 29.2938 50.4625 30.8607 51.1883 32.5884C51.9141 34.316 52.2909 36.1701 52.2972 38.0439C52.3035 39.9178 51.939 41.7744 51.2248 43.5068C50.5106 45.2393 49.4608 46.8133 48.1358 48.1384C46.8107 49.4634 45.2367 50.5132 43.5043 51.2274C41.7718 51.9416 39.9152 52.3061 38.0414 52.2998C36.1675 52.2935 34.3134 51.9166 32.5858 51.1908C30.8582 50.4651 29.2912 49.4047 27.9751 48.0708L25.2367 45.3325C24.8665 44.9752 24.5711 44.5478 24.3678 44.0751C24.1645 43.6024 24.0573 43.094 24.0526 42.5795C24.0479 42.065 24.1457 41.5547 24.3403 41.0783C24.5349 40.602 24.8225 40.1693 25.1861 39.8052C25.5498 39.4412 25.9823 39.1533 26.4584 38.9582C26.9345 38.7632 27.4448 38.6649 27.9593 38.6691C28.4738 38.6733 28.9823 38.78 29.4552 38.9829C29.928 39.1857 30.3558 39.4807 30.7134 39.8506L33.4569 42.5916C34.6701 43.7938 36.31 44.4665 38.018 44.4626C39.726 44.4586 41.3628 43.7782 42.5703 42.5703C43.7779 41.3624 44.4578 39.7254 44.4613 38.0175C44.4648 36.3095 43.7916 34.6697 42.589 33.4569L34.3688 25.2367C33.4803 24.3479 32.3518 23.7375 31.1216 23.4806C29.8914 23.2236 28.6129 23.3312 27.4429 23.7901C27.0261 23.9554 26.6352 24.1242 26.2701 24.2964L25.0714 24.857C23.4697 25.5803 22.2375 25.8903 20.6694 24.3248C18.4167 22.0721 19.0006 19.9926 21.7466 18.099C24.4822 16.2167 27.7906 15.3519 31.0973 15.6549C34.404 15.9578 37.5002 17.4094 39.8481 19.7575ZM24.3222 4.23165L27.0606 6.96998C27.7668 7.70048 28.1578 8.67913 28.1495 9.69515C28.1411 10.7112 27.7341 11.6833 27.0159 12.4021C26.2978 13.1209 25.3261 13.5289 24.3101 13.5382C23.2941 13.5475 22.3151 13.1573 21.5839 12.4518L18.843 9.71348C18.2474 9.09648 17.5349 8.60427 16.747 8.26557C15.9592 7.92688 15.1118 7.74848 14.2543 7.74079C13.3967 7.73309 12.5463 7.89626 11.7525 8.22077C10.9587 8.54527 10.2374 9.02462 9.63088 9.63083C9.02432 10.2371 8.54457 10.958 8.21961 11.7516C7.89466 12.5452 7.73101 13.3956 7.73822 14.2531C7.74542 15.1107 7.92334 15.9582 8.26159 16.7462C8.59984 17.5343 9.09165 18.247 9.70832 18.843L17.9285 27.0631C18.817 27.952 19.9455 28.5623 21.1757 28.8193C22.4059 29.0763 23.6844 28.9687 24.8544 28.5098C25.2712 28.3445 25.6621 28.1757 26.0272 28.0035L27.2259 27.4429C28.8276 26.7196 30.0624 26.4096 31.6279 27.9751C33.8806 30.2277 33.2967 32.3073 30.5507 34.2009C27.8151 36.0832 24.5067 36.948 21.2 36.645C17.8933 36.342 14.7971 34.8905 12.4492 32.5424L4.22907 24.3222C2.89519 23.0061 1.83483 21.4391 1.10903 19.7115C0.383242 17.9839 0.00635744 16.1298 7.97392e-05 14.2559C-0.00619796 12.3821 0.358256 10.5255 1.07246 8.79303C1.78666 7.0606 2.8365 5.48655 4.16153 4.16152C5.48656 2.83649 7.0606 1.78666 8.79304 1.07246C10.5255 0.358255 12.3821 -0.00619796 14.2559 7.97393e-05C16.1298 0.00635744 17.9839 0.383242 19.7115 1.10903C21.4391 1.83483 23.0061 2.89777 24.3222 4.23165Z" fill="white"/>
</svg>
