<svg width="142" height="148" viewBox="0 0 142 148" fill="none" xmlns="http://www.w3.org/2000/svg">
<mask id="mask0_714_24" style="mask-type:alpha" maskUnits="userSpaceOnUse" x="69" y="50" width="65" height="45">
<path d="M73.7208 59.162C82.7498 54.6341 90.2517 54.6609 100.513 59.162C105.541 61.5632 111.019 62.8778 116.589 63.0201C121.917 62.9459 127.152 61.6051 131.86 59.1084C132.32 58.8755 132.702 58.5152 132.962 58.0705C133.222 57.6258 133.348 57.1157 133.325 56.6012C133.303 56.0867 133.132 55.5896 132.834 55.1695C132.537 54.7493 132.124 54.4239 131.646 54.2322L123.608 51.0707C123.278 50.9241 122.921 50.846 122.559 50.841C122.198 50.836 121.839 50.9043 121.504 51.0417C121.17 51.1791 120.867 51.3828 120.613 51.6405C120.359 51.8982 120.16 52.2046 120.028 52.5412C119.896 52.8778 119.834 53.2377 119.844 53.5991C119.855 53.9606 119.939 54.3161 120.09 54.6443C120.242 54.9726 120.459 55.2667 120.727 55.509C120.996 55.7513 121.31 55.9367 121.652 56.0541L123.367 56.7507C116.803 58.5994 110.534 57.7688 102.657 54.259C91.0823 49.1416 81.6781 49.1684 71.3094 54.3662C70.6737 54.6826 70.1896 55.2385 69.9636 55.9117C69.7375 56.5849 69.7879 57.3203 70.1038 57.9564C70.2604 58.2746 70.4786 58.5585 70.7459 58.7917C71.0131 59.0249 71.3239 59.2028 71.6604 59.3149C71.9968 59.4271 72.3522 59.4713 72.7059 59.4451C73.0596 59.4188 73.4045 59.3226 73.7208 59.162ZM131.7 69.8522L123.662 66.7175C123.331 66.5709 122.974 66.4928 122.613 66.4878C122.251 66.4828 121.892 66.5511 121.558 66.6885C121.224 66.8259 120.92 67.0296 120.667 67.2873C120.413 67.545 120.214 67.8514 120.082 68.188C119.95 68.5246 119.887 68.8845 119.898 69.2459C119.909 69.6074 119.992 69.9629 120.144 70.2911C120.296 70.6194 120.512 70.9135 120.781 71.1558C121.049 71.398 121.364 71.5835 121.706 71.7009L123.421 72.3707C116.857 74.2194 110.587 73.3888 102.71 69.9058C91.0823 64.7349 81.6781 64.7349 71.3094 69.9594C70.9693 70.101 70.6621 70.3113 70.4069 70.577C70.1517 70.8428 69.9541 71.1583 69.8263 71.5039C69.6986 71.8495 69.6435 72.2177 69.6645 72.5855C69.6855 72.9533 69.7822 73.3129 69.9484 73.6417C70.1147 73.9705 70.3469 74.2614 70.6307 74.4964C70.9145 74.7314 71.2437 74.9053 71.5977 75.0073C71.9517 75.1093 72.323 75.1372 72.6883 75.0892C73.0536 75.0412 73.4051 74.9184 73.7208 74.7284C82.723 70.2005 90.2517 70.2273 100.513 74.7284C105.539 77.1389 111.017 78.4626 116.589 78.6133C121.922 78.5454 127.16 77.1945 131.86 74.6749C132.323 74.4424 132.709 74.0808 132.97 73.6338C133.232 73.1868 133.358 72.6737 133.334 72.1564C133.303 71.6582 133.134 71.1785 132.845 70.7714C132.556 70.3643 132.16 70.0459 131.7 69.8522ZM131.7 85.4186L123.662 82.2839C123.331 82.1373 122.974 82.0592 122.613 82.0542C122.251 82.0492 121.892 82.1175 121.558 82.2549C121.224 82.3923 120.92 82.596 120.667 82.8537C120.413 83.1114 120.214 83.4178 120.082 83.7544C119.95 84.091 119.887 84.4509 119.898 84.8123C119.909 85.1738 119.992 85.5293 120.144 85.8576C120.296 86.1858 120.512 86.4799 120.781 86.7222C121.049 86.9645 121.364 87.1499 121.706 87.2673L123.421 87.9371C116.857 89.7858 110.587 88.982 102.71 85.4722C91.0823 80.3816 81.6781 80.3816 71.3094 85.5258C70.9945 85.6841 70.7139 85.9029 70.4836 86.1697C70.2532 86.4365 70.0777 86.746 69.967 87.0807C69.8563 87.4153 69.8126 87.7684 69.8383 88.12C69.8641 88.4715 69.9588 88.8145 70.1172 89.1294C70.2755 89.4443 70.4943 89.7249 70.7611 89.9552C71.0279 90.1856 71.3374 90.3611 71.672 90.4718C72.0067 90.5826 72.3598 90.6263 72.7113 90.6005C73.0629 90.5747 73.4059 90.48 73.7208 90.3216C82.857 85.7401 90.2517 85.7401 100.513 90.3752C105.541 92.7764 111.019 94.091 116.589 94.2333C121.917 94.1591 127.152 92.8183 131.86 90.3216C132.328 90.092 132.718 89.7313 132.983 89.2835C133.249 88.8356 133.378 88.3202 133.355 87.8001C133.333 87.28 133.159 86.7778 132.855 86.3549C132.552 85.9319 132.132 85.6066 131.646 85.4186H131.7Z" fill="black"/>
</mask>
<g mask="url(#mask0_714_24)">
<rect x="69.6602" y="50.4443" width="66.9811" height="29.4717" fill="white"/>
</g>
<g clip-path="url(#clip0_714_24)">
<mask id="mask1_714_24" style="mask-type:alpha" maskUnits="userSpaceOnUse" x="69" y="82" width="44" height="44">
<path d="M72.3929 91.1302C78.4694 86.6975 83.5181 86.7237 90.424 91.1302C93.8077 93.4808 97.494 94.7678 101.243 94.9071C104.829 94.8344 108.352 93.5218 111.52 91.0777C111.829 90.8497 112.087 90.4969 112.262 90.0616C112.436 89.6263 112.521 89.1269 112.506 88.6232C112.491 88.1196 112.376 87.6329 112.176 87.2216C111.975 86.8103 111.698 86.4917 111.376 86.3041L105.967 83.2091C105.744 83.0656 105.504 82.9891 105.261 82.9842C105.017 82.9793 104.776 83.0462 104.551 83.1807C104.326 83.3152 104.122 83.5146 103.951 83.7668C103.78 84.0191 103.646 84.3191 103.557 84.6486C103.469 84.9781 103.426 85.3304 103.434 85.6843C103.441 86.0381 103.497 86.3862 103.599 86.7075C103.701 87.0288 103.847 87.3168 104.028 87.554C104.208 87.7911 104.42 87.9727 104.65 88.0876L105.804 88.7696C101.387 90.5794 97.1676 89.7663 91.8664 86.3303C84.077 81.3206 77.7481 81.3468 70.7701 86.4352C70.3423 86.745 70.0165 87.2892 69.8643 87.9483C69.7122 88.6073 69.7461 89.3272 69.9587 89.9499C70.0641 90.2614 70.211 90.5393 70.3908 90.7677C70.5706 90.996 70.7798 91.1701 71.0063 91.2798C71.2327 91.3896 71.4719 91.4329 71.7099 91.4073C71.9479 91.3816 72.1801 91.2874 72.3929 91.1302ZM111.412 101.595L106.003 98.5267C105.78 98.3832 105.54 98.3067 105.297 98.3019C105.054 98.297 104.812 98.3638 104.587 98.4983C104.362 98.6328 104.158 98.8322 103.987 99.0845C103.816 99.3368 103.682 99.6367 103.594 99.9662C103.505 100.296 103.462 100.648 103.47 101.002C103.477 101.356 103.533 101.704 103.635 102.025C103.737 102.346 103.883 102.634 104.064 102.872C104.245 103.109 104.456 103.29 104.687 103.405L105.841 104.061C101.423 105.871 97.2036 105.058 91.9025 101.648C84.077 96.5858 77.7481 96.5858 70.7701 101.7C70.5412 101.839 70.3344 102.045 70.1627 102.305C69.991 102.565 69.8579 102.874 69.772 103.212C69.686 103.551 69.649 103.911 69.6631 104.271C69.6772 104.631 69.7423 104.983 69.8541 105.305C69.966 105.627 70.1223 105.912 70.3133 106.142C70.5043 106.372 70.7259 106.542 70.9641 106.642C71.2024 106.742 71.4522 106.769 71.6981 106.722C71.9439 106.675 72.1804 106.555 72.3929 106.369C78.4513 101.936 83.5181 101.963 90.424 106.369C93.8063 108.729 97.4927 110.025 101.243 110.172C104.832 110.106 108.357 108.783 111.52 106.317C111.832 106.089 112.091 105.735 112.267 105.298C112.443 104.86 112.528 104.358 112.512 103.851C112.491 103.363 112.377 102.894 112.183 102.495C111.989 102.097 111.722 101.785 111.412 101.595ZM111.412 116.834L106.003 113.766C105.78 113.622 105.54 113.546 105.297 113.541C105.054 113.536 104.812 113.603 104.587 113.737C104.362 113.872 104.158 114.071 103.987 114.323C103.816 114.576 103.682 114.876 103.594 115.205C103.505 115.535 103.462 115.887 103.47 116.241C103.477 116.595 103.533 116.943 103.635 117.264C103.737 117.585 103.883 117.873 104.064 118.111C104.245 118.348 104.456 118.529 104.687 118.644L105.841 119.3C101.423 121.11 97.2036 120.323 91.9025 116.887C84.077 111.903 77.7481 111.903 70.7701 116.939C70.5582 117.094 70.3693 117.309 70.2143 117.57C70.0593 117.831 69.9412 118.134 69.8666 118.462C69.7921 118.789 69.7627 119.135 69.7801 119.479C69.7974 119.823 69.8612 120.159 69.9677 120.467C70.0743 120.775 70.2215 121.05 70.4011 121.276C70.5806 121.501 70.7889 121.673 71.0141 121.781C71.2393 121.89 71.477 121.933 71.7136 121.907C71.9501 121.882 72.181 121.789 72.3929 121.634C78.5415 117.149 83.5181 117.149 90.424 121.687C93.8077 124.037 97.494 125.324 101.243 125.464C104.829 125.391 108.352 124.078 111.52 121.634C111.835 121.41 112.097 121.056 112.276 120.618C112.455 120.18 112.542 119.675 112.526 119.166C112.511 118.657 112.394 118.165 112.19 117.751C111.986 117.337 111.703 117.018 111.376 116.834H111.412Z" fill="black"/>
</mask>
<g mask="url(#mask1_714_24)">
<rect x="69.6602" y="82.5958" width="42.8679" height="13.3962" fill="white"/>
</g>
</g>
<rect x="17.6837" y="68.589" width="10.1811" height="10.1811" rx="3.75094" stroke="white" stroke-width="3.21509"/>
<rect x="36.4376" y="92.7017" width="10.1811" height="10.1811" rx="3.75094" stroke="white" stroke-width="3.21509"/>
<rect x="36.4376" y="41.7964" width="10.1811" height="10.1811" rx="3.75094" stroke="white" stroke-width="3.21509"/>
<rect x="55.1935" y="68.589" width="10.1811" height="10.1811" rx="3.75094" stroke="white" stroke-width="3.21509"/>
<line x1="25.3972" y1="68.8633" x2="36.1142" y2="50.1086" stroke="white" stroke-width="3.21509"/>
<line x1="46.9426" y1="50.1088" x2="57.6596" y2="68.8636" stroke="white" stroke-width="3.21509"/>
<line x1="41.2596" y1="93.7735" x2="41.2596" y2="53.5848" stroke="white" stroke-width="3.21509"/>
<defs>
<clipPath id="clip0_714_24">
<rect width="42.8679" height="16.0755" fill="white" transform="translate(69.6602 79.9165)"/>
</clipPath>
</defs>
</svg>
