<svg width="59" height="59" viewBox="0 0 59 59" fill="none" xmlns="http://www.w3.org/2000/svg">
<path d="M16.3333 43H16.3767M29.7 43H29.7167M43.05 43H43.0667M43.05 29.6667H43.0667M16.3667 29.6667H16.3833M29.7 29.6667H29.7167M43.0667 16.3333H43.0833M16.3833 16.3333H16.4M29.7167 16.3333H29.7333M13 3H9.66667C7.89856 3 6.20286 3.70238 4.95262 4.95262C3.70238 6.20286 3 7.89856 3 9.66667V49.6667C3 51.4348 3.70238 53.1305 4.95262 54.3807C6.20286 55.631 7.89856 56.3333 9.66667 56.3333H13M46.3333 3H49.6667C51.4348 3 53.1305 3.70238 54.3807 4.95262C55.631 6.20286 56.3333 7.89856 56.3333 9.66667V49.6667C56.3333 51.4348 55.631 53.1305 54.3807 54.3807C53.1305 55.631 51.4348 56.3333 49.6667 56.3333H46.3333" stroke="white" stroke-width="5" stroke-linecap="round" stroke-linejoin="round"/>
</svg>
