<svg width="53" height="49" viewBox="0 0 53 49" fill="none" xmlns="http://www.w3.org/2000/svg">
<path d="M20.125 7.875C20.125 9.96358 19.2953 11.9666 17.8185 13.4435C16.3416 14.9203 14.3386 15.75 12.25 15.75C10.1614 15.75 8.15838 14.9203 6.68153 13.4435C5.20469 11.9666 4.375 9.96358 4.375 7.875C4.375 5.78642 5.20469 3.78338 6.68153 2.30653C8.15838 0.829686 10.1614 8.36537e-07 12.25 8.36537e-07C14.3386 8.36537e-07 16.3416 0.829686 17.8185 2.30653C19.2953 3.78338 20.125 5.78642 20.125 7.875ZM3.5 17.5C2.57174 17.5 1.6815 17.8688 1.02513 18.5251C0.368749 19.1815 0 20.0717 0 21V36.75C-3.39007e-08 38.3587 0.316855 39.9516 0.932475 41.4379C1.5481 42.9241 2.45042 44.2745 3.58794 45.4121C4.72546 46.5496 6.07589 47.4519 7.56213 48.0675C9.04837 48.6831 10.6413 49 12.25 49C13.8587 49 15.4516 48.6831 16.9379 48.0675C18.4241 47.4519 19.7745 46.5496 20.9121 45.4121C22.0496 44.2745 22.9519 42.9241 23.5675 41.4379C24.1831 39.9516 24.5 38.3587 24.5 36.75V21C24.5 20.0717 24.1313 19.1815 23.4749 18.5251C22.8185 17.8688 21.9283 17.5 21 17.5H3.5ZM23.625 7.875C23.625 10.15 22.96 12.2675 21.805 14.0455C23.2505 14.2135 24.5595 14.8155 25.599 15.7255C25.8113 15.7395 26.0283 15.7477 26.25 15.75C27.4908 15.7499 28.714 15.4566 29.8199 14.8941C30.9258 14.3315 31.8832 13.5156 32.6139 12.5128C33.3446 11.51 33.8281 10.3487 34.0248 9.12364C34.2215 7.89856 34.126 6.64432 33.746 5.46315C33.366 4.28199 32.7123 3.20734 31.8381 2.3268C30.9639 1.44625 29.894 0.784724 28.7157 0.396144C27.5373 0.0075637 26.2838 -0.0970747 25.0573 0.0907573C23.8308 0.278589 22.6661 0.753575 21.658 1.477C22.897 3.3005 23.625 5.502 23.625 7.875ZM22.75 48.4925C24.4021 47.0148 25.7237 45.2051 26.6284 43.1816C27.533 41.1581 28.0004 38.9665 28 36.75V21C28 19.726 27.657 18.529 27.062 17.5H35C35.9283 17.5 36.8185 17.8688 37.4749 18.5251C38.1312 19.1815 38.5 20.0717 38.5 21V36.75C38.5005 38.6582 38.0552 40.5401 37.1996 42.2457C36.344 43.9513 35.1018 45.4335 33.572 46.5741C32.0422 47.7146 30.2671 48.482 28.3882 48.8151C26.5094 49.1482 24.5786 49.0377 22.75 48.4925ZM37.625 7.875C37.625 10.15 36.96 12.2675 35.805 14.0455C37.2505 14.2135 38.5595 14.8155 39.599 15.7255C39.8113 15.7395 40.0283 15.7477 40.25 15.75C41.4908 15.7499 42.714 15.4566 43.8199 14.8941C44.9258 14.3315 45.8832 13.5156 46.6139 12.5128C47.3446 11.51 47.8281 10.3487 48.0248 9.12364C48.2215 7.89856 48.126 6.64432 47.746 5.46315C47.366 4.28199 46.7123 3.20734 45.8381 2.3268C44.9639 1.44625 43.894 0.784724 42.7157 0.396144C41.5373 0.0075637 40.2838 -0.0970747 39.0573 0.0907573C37.8308 0.278589 36.6661 0.753575 35.658 1.477C36.897 3.3005 37.625 5.502 37.625 7.875ZM36.75 48.4925C38.4021 47.0148 39.7237 45.2051 40.6284 43.1816C41.533 41.1581 42.0004 38.9665 42 36.75V21C42 19.726 41.657 18.529 41.062 17.5H49C49.9283 17.5 50.8185 17.8688 51.4749 18.5251C52.1313 19.1815 52.5 20.0717 52.5 21V36.75C52.5005 38.6582 52.0552 40.5401 51.1996 42.2457C50.344 43.9513 49.1018 45.4335 47.572 46.5741C46.0422 47.7146 44.2671 48.482 42.3882 48.8151C40.5094 49.1482 38.5786 49.0377 36.75 48.4925Z" fill="white"/>
</svg>
