<svg width="56" height="55" viewBox="0 0 56 55" fill="none" xmlns="http://www.w3.org/2000/svg">
<path d="M55.6691 38.3575C56.0375 39.0821 56.098 39.9207 55.8372 40.689C55.5765 41.4574 55.0158 42.0926 54.2784 42.4551L29.3885 54.6777C28.9567 54.8897 28.4805 55 27.9978 55C27.515 55 27.0389 54.8897 26.6071 54.6777L1.71719 42.4551C1.00557 42.0783 0.471271 41.4441 0.227483 40.687C-0.016304 39.9299 0.0495651 39.1093 0.411138 38.3991C0.772711 37.6889 1.40159 37.1448 2.16456 36.8821C2.92753 36.6194 3.76466 36.6587 4.49863 36.9917L27.9978 48.5237L51.5 36.9886C52.2378 36.6267 53.0916 36.5673 53.874 36.8235C54.6563 37.0796 55.3031 37.6302 55.6722 38.3545M55.6722 26.1319C56.0406 26.8565 56.1011 27.695 55.8403 28.4634C55.5796 29.2317 55.0189 29.867 54.2815 30.2295L29.3916 42.4521C28.9598 42.664 28.4836 42.7744 28.0009 42.7744C27.5181 42.7744 27.042 42.664 26.6102 42.4521L1.7203 30.2295C1.00868 29.8526 0.474382 29.2185 0.230594 28.4614C-0.0131929 27.7043 0.0526768 26.8837 0.41425 26.1735C0.775823 25.4632 1.4047 24.9191 2.16767 24.6564C2.93064 24.3937 3.76777 24.433 4.50175 24.766L27.9978 36.3011L51.5 24.766C52.2378 24.4042 53.0916 24.3448 53.874 24.6009C54.6563 24.857 55.3031 25.4077 55.6722 26.1319ZM28.0227 0C28.1388 0 28.2539 0.00712975 28.368 0.0213894L28.7134 0.0825023L28.9809 0.155838L29.0183 0.174172L29.0556 0.180283L29.1458 0.223062L29.3014 0.281119L29.3512 0.30862L29.3885 0.323898L54.2784 12.5465C54.7945 12.8005 55.2284 13.1906 55.5317 13.673C55.8349 14.1555 55.9956 14.7113 55.9956 15.2782C55.9956 15.8452 55.8349 16.401 55.5317 16.8834C55.2284 17.3659 54.7945 17.7559 54.2784 18.01L29.3885 30.2326C28.9567 30.4445 28.4805 30.5548 27.9978 30.5548C27.515 30.5548 27.0389 30.4445 26.6071 30.2326L1.71719 18.01C1.2011 17.7559 0.767144 17.3659 0.46388 16.8834C0.160616 16.401 0 15.8452 0 15.2782C0 14.7113 0.160616 14.1555 0.46388 13.673C0.767144 13.1906 1.2011 12.8005 1.71719 12.5465L26.6071 0.323898L26.6413 0.30862L26.6973 0.278064L26.94 0.180283L26.9742 0.174172L27.0146 0.155838L27.2822 0.0825023L27.6244 0.0213894L27.7987 0.00611158L28.0227 0Z" fill="white"/>
</svg>
